<svg width="36" height="36" viewBox="0 0 36 36" fill="none" xmlns="http://www.w3.org/2000/svg">
<g clip-path="url(#clip0_36_278)">
<path d="M0 4.23418L1.82278 3.32278L2.73418 1.5L3.79747 3.32278L5.62025 4.23418L3.79747 5.29747L2.73418 7.12025L1.82278 5.29747L0 4.23418Z" fill="#FFA500"/>
<path d="M30.3797 19.4241L32.2025 18.5127L33.1139 16.6899L34.1772 18.5127L36 19.4241L34.1772 20.4873L33.1139 22.3101L32.2025 20.4873L30.3797 19.4241Z" fill="#FFA500"/>
<path d="M19.7468 19.2721C19.7468 13.6519 22.7848 8.79111 27.3418 6.05693C25.0633 4.68984 22.481 4.08224 19.7468 4.08224C11.3924 4.08224 4.55696 10.9177 4.55696 19.2721C4.55696 27.6265 11.3924 34.462 19.7468 34.462C22.481 34.462 25.0633 33.7025 27.3418 32.4873C22.7848 29.905 19.7468 24.8924 19.7468 19.2721Z" fill="#FFA500" stroke="#FFA500" stroke-width="1.6" stroke-linejoin="round"/>
</g>
<defs>
<clipPath id="clip0_36_278">
<rect width="36" height="36" fill="white"/>
</clipPath>
</defs>
</svg>
