<svg width="36" height="36" viewBox="0 0 36 36" fill="none" xmlns="http://www.w3.org/2000/svg">
<path d="M11.8816 22.0428V24.7632" stroke="#FFA500" stroke-width="2" stroke-linecap="round"/>
<path d="M6.11078 19.6525L4.18716 21.5761" stroke="#FFA500" stroke-width="2" stroke-linecap="round"/>
<path d="M3.7204 13.8816H0.999995" stroke="#FFA500" stroke-width="2" stroke-linecap="round"/>
<path d="M6.11078 8.11078L4.18716 6.18716" stroke="#FFA500" stroke-width="2" stroke-linecap="round"/>
<path d="M11.8816 5.7204V2.99999" stroke="#FFA500" stroke-width="2" stroke-linecap="round"/>
<path d="M17.6525 8.11078L19.5761 6.18716" stroke="#FFA500" stroke-width="2" stroke-linecap="round"/>
<path d="M20.0428 13.8816H22.7632" stroke="#FFA500" stroke-width="2" stroke-linecap="round"/>
<path d="M17.6525 19.6525L19.5761 21.5761" stroke="#FFA500" stroke-width="2" stroke-linecap="round"/>
<path d="M11.8816 18.4156C14.3857 18.4156 16.4156 16.3857 16.4156 13.8816C16.4156 11.3776 14.3857 9.34761 11.8816 9.34761C9.37754 9.34761 7.3476 11.3776 7.3476 13.8816C7.3476 16.3857 9.37754 18.4156 11.8816 18.4156Z" fill="#FFA500" stroke="#FFA500" stroke-width="2"/>
<path d="M35 24.4988C35 20.3275 31.6448 17.063 27.5642 17.063C26.6574 17.063 25.8413 17.2444 25.0252 17.5164C24.7532 14.4333 22.2141 11.8942 19.0403 11.8942C15.6851 11.8942 12.9647 14.6146 12.9647 17.9698C12.9647 18.6952 13.1461 19.4207 13.3275 20.0554C13.0554 19.9648 12.6927 19.9648 12.4207 19.9648C9.06549 19.9648 6.34509 22.6852 6.34509 26.0403C6.34509 29.3048 8.97482 32.0252 12.2393 32.1159H27.8363C31.8262 31.6625 35 28.4887 35 24.4988Z" fill="#57A0EE" stroke="white" stroke-width="1.2" stroke-linejoin="round"/>
</svg>
