<svg width="36" height="36" viewBox="0 0 36 36" fill="none" xmlns="http://www.w3.org/2000/svg">
<g clip-path="url(#clip0_36_280)">
<path d="M18.9616 7.29406L19.8243 6.86271L20.2556 6L20.7589 6.86271L21.6216 7.29406L20.7589 7.7973L20.2556 8.66001L19.8243 7.7973L18.9616 7.29406Z" fill="#FFA500"/>
<path d="M33.34 14.4833L34.2027 14.0519L34.6341 13.1892L35.1373 14.0519L36 14.4833L35.1373 14.9865L34.6341 15.8492L34.2027 14.9865L33.34 14.4833Z" fill="#FFA500"/>
<path d="M28.3075 14.4114C28.3075 11.7514 29.7454 9.45081 31.9022 8.15675C30.8238 7.50972 29.6016 7.22215 28.3075 7.22215C24.3535 7.22215 21.1183 10.4573 21.1183 14.4114C21.1183 18.3654 24.3535 21.6006 28.3075 21.6006C29.6016 21.6006 30.8238 21.2411 31.9022 20.666C29.7454 19.4438 28.3075 17.0714 28.3075 14.4114Z" fill="#FFA500" stroke="#FFA500" stroke-width="1.6" stroke-linejoin="round"/>
<path d="M28.3974 23.2541C28.3974 19.1203 25.0724 15.8852 21.0285 15.8852C20.1298 15.8852 19.321 16.0649 18.5122 16.3345C18.2426 13.2791 15.7264 10.7628 12.5811 10.7628C9.25612 10.7628 6.56016 13.4588 6.56016 16.7838C6.56016 17.5027 6.73989 18.2217 6.91962 18.8507C6.65002 18.7609 6.29056 18.7608 6.02097 18.7608C2.69596 18.7608 0 21.4568 0 24.7818C0 28.017 2.60609 30.7129 5.84124 30.8028H21.2981C25.2521 30.3535 28.3974 27.2082 28.3974 23.2541Z" fill="#57A0EE" stroke="white" stroke-width="1.2" stroke-linejoin="round"/>
</g>
<defs>
<clipPath id="clip0_36_280">
<rect width="36" height="36" fill="white"/>
</clipPath>
</defs>
</svg>
