<svg width="36" height="36" viewBox="0 0 36 36" fill="none" xmlns="http://www.w3.org/2000/svg">
<g clip-path="url(#clip0_36_282)">
<path d="M36 20.8354C36 15.5949 31.7848 11.4937 26.6582 11.4937C25.519 11.4937 24.4937 11.7215 23.4684 12.0633C23.1266 8.18987 19.9367 5 15.9494 5C11.7342 5 8.31645 8.41772 8.31645 12.6329C8.31645 13.5443 8.5443 14.4557 8.77215 15.2532C8.43038 15.1392 7.97468 15.1392 7.63291 15.1392C3.41772 15.1392 0 18.557 0 22.7722C0 26.8734 3.3038 30.2911 7.40506 30.4051H27C32.0127 29.8354 36 25.8481 36 20.8354Z" fill="#57A0EE" stroke="white" stroke-width="1.2" stroke-linejoin="round"/>
</g>
<defs>
<clipPath id="clip0_36_282">
<rect width="36" height="36" fill="white"/>
</clipPath>
</defs>
</svg>
