<svg width="36" height="36" viewBox="0 0 36 36" fill="none" xmlns="http://www.w3.org/2000/svg">
<path d="M12.2401 18.1703V20.4803" stroke="#FFA500" stroke-width="2" stroke-linecap="round"/>
<path d="M7.33984 16.1405L5.7064 17.7739" stroke="#FFA500" stroke-width="2" stroke-linecap="round"/>
<path d="M5.31003 11.2401H2.99999" stroke="#FFA500" stroke-width="2" stroke-linecap="round"/>
<path d="M7.33984 6.33984L5.7064 4.7064" stroke="#FFA500" stroke-width="2" stroke-linecap="round"/>
<path d="M12.2401 4.31006V2.00002" stroke="#FFA500" stroke-width="2" stroke-linecap="round"/>
<path d="M17.1405 6.33984L18.7739 4.7064" stroke="#FFA500" stroke-width="2" stroke-linecap="round"/>
<path d="M19.1703 11.2401H21.4803" stroke="#FFA500" stroke-width="2" stroke-linecap="round"/>
<path d="M17.1405 16.1405L18.7739 17.7739" stroke="#FFA500" stroke-width="2" stroke-linecap="round"/>
<path d="M12.2402 15.0902C14.3665 15.0902 16.0902 13.3665 16.0902 11.2401C16.0902 9.11381 14.3665 7.39008 12.2402 7.39008C10.1138 7.39008 8.39011 9.11381 8.39011 11.2401C8.39011 13.3665 10.1138 15.0902 12.2402 15.0902Z" fill="#FFA500" stroke="#FFA500" stroke-width="2"/>
<path d="M33.5695 17.7083C33.5695 14.1662 30.7205 11.3942 27.2554 11.3942C26.4854 11.3942 25.7924 11.5482 25.0994 11.7792C24.8684 9.16113 22.7124 7.0051 20.0173 7.0051C17.1683 7.0051 14.8582 9.31514 14.8582 12.1642C14.8582 12.7802 15.0122 13.3962 15.1662 13.9352C14.9352 13.8582 14.6272 13.8582 14.3962 13.8582C11.5472 13.8582 9.23712 16.1683 9.23712 19.0173C9.23712 21.7894 11.4702 24.0994 14.2422 24.1764H27.4864C30.8745 23.7914 33.5695 21.0963 33.5695 17.7083Z" fill="#57A0EE" stroke="white" stroke-width="1.2" stroke-linejoin="round"/>
<path d="M17.5439 26.8638L16.4742 32.9303" stroke="#91C0F8" stroke-width="2" stroke-linecap="round" stroke-dasharray="4 4"/>
<path d="M20.8446 25.882L19.7749 31.9485" stroke="#91C0F8" stroke-width="2" stroke-linecap="round" stroke-dasharray="4 4"/>
<path d="M23.7441 27.1751L22.6744 33.2417" stroke="#91C0F8" stroke-width="2" stroke-linecap="round" stroke-dasharray="4 4"/>
</svg>
