<svg width="36" height="36" viewBox="0 0 36 36" fill="none" xmlns="http://www.w3.org/2000/svg">
<path d="M18.7304 3.14179L19.4916 2.76119L19.8722 2L20.3162 2.76119L21.0774 3.14179L20.3162 3.58582L19.8722 4.34701L19.4916 3.58582L18.7304 3.14179Z" fill="#FFA500"/>
<path d="M31.4169 9.48505L32.1781 9.10445L32.5587 8.34326L33.0027 9.10445L33.7639 9.48505L33.0027 9.92908L32.5587 10.6903L32.1781 9.92908L31.4169 9.48505Z" fill="#FFA500"/>
<path d="M26.9766 9.42161C26.9766 7.0746 28.2453 5.04475 30.1483 3.90296C29.1968 3.33207 28.1184 3.07834 26.9766 3.07834C23.4878 3.07834 20.6334 5.93281 20.6334 9.42161C20.6334 12.9104 23.4878 15.7649 26.9766 15.7649C28.1184 15.7649 29.1968 15.4477 30.1483 14.9403C28.2453 13.8619 26.9766 11.7686 26.9766 9.42161Z" fill="#FFA500" stroke="#FFA500" stroke-width="1.6" stroke-linejoin="round"/>
<path d="M27.0559 17.2238C27.0559 13.5764 24.1222 10.7219 20.5541 10.7219C19.7612 10.7219 19.0475 10.8805 18.3339 11.1184C18.0961 8.42251 15.8759 6.20236 13.1007 6.20236C10.167 6.20236 7.78824 8.58109 7.78824 11.5149C7.78824 12.1492 7.94682 12.7835 8.1054 13.3385C7.86753 13.2593 7.55036 13.2593 7.31249 13.2593C4.37873 13.2593 2 15.638 2 18.5717C2 21.4262 4.29944 23.8049 7.15391 23.8842H20.7919C24.2807 23.4878 27.0559 20.7126 27.0559 17.2238Z" fill="#57A0EE" stroke="white" stroke-width="1.2" stroke-linejoin="round"/>
<path d="M10.5538 26.6516L9.45229 32.8985" stroke="#91C0F8" stroke-width="2" stroke-linecap="round" stroke-dasharray="4 4"/>
<path d="M13.9526 25.6407L12.8511 31.8876" stroke="#91C0F8" stroke-width="2" stroke-linecap="round" stroke-dasharray="4 4"/>
<path d="M16.9384 26.9723L15.8369 33.2192" stroke="#91C0F8" stroke-width="2" stroke-linecap="round" stroke-dasharray="4 4"/>
</svg>
