<svg width="36" height="36" viewBox="0 0 36 36" fill="none" xmlns="http://www.w3.org/2000/svg">
<path d="M32.4851 14.3183C32.4851 9.91082 29.0328 6.46147 24.8339 6.46147C23.9008 6.46147 23.0611 6.6531 22.2213 6.94055C21.9414 3.68283 19.3288 1 16.063 1C12.6107 1 9.81144 3.87446 9.81144 7.41962C9.81144 8.18615 9.99805 8.95267 10.1847 9.62337C9.90474 9.52756 9.53151 9.52756 9.25159 9.52756C5.79922 9.52756 3 12.402 3 15.9472C3 19.3965 5.70591 22.271 9.06498 22.3668H25.1138C29.2194 21.8877 32.4851 18.5342 32.4851 14.3183Z" fill="#57A0EE" stroke="white" stroke-width="1.2" stroke-linejoin="round"/>
<path d="M13.0659 26.1203L11.7696 33.6691" stroke="#91C0F8" stroke-width="2" stroke-linecap="round" stroke-dasharray="4 4"/>
<path d="M17.0655 24.8986L15.7693 32.4474" stroke="#91C0F8" stroke-width="2" stroke-linecap="round" stroke-dasharray="4 4"/>
<path d="M20.5791 26.5078L19.2829 34.0566" stroke="#91C0F8" stroke-width="2" stroke-linecap="round" stroke-dasharray="4 4"/>
</svg>
