<svg width="36" height="36" viewBox="0 0 36 36" fill="none" xmlns="http://www.w3.org/2000/svg">
<g clip-path="url(#clip0_36_309)">
<path d="M23.9922 7.77421C23.9922 5.20145 21.9228 3.18799 19.406 3.18799C18.8467 3.18799 18.3434 3.29985 17.84 3.46763C17.6722 1.56603 16.1062 0 14.1486 0C12.0792 0 10.4014 1.67789 10.4014 3.74728C10.4014 4.19472 10.5132 4.64215 10.6251 5.03366C10.4573 4.97773 10.2336 4.97773 10.0658 4.97773C7.99638 4.97773 6.3185 6.65562 6.3185 8.72501C6.3185 10.7385 7.94045 12.4164 9.95392 12.4723H19.5738C22.0347 12.1926 23.9922 10.2351 23.9922 7.77421Z" fill="#91C0F8" stroke="white" stroke-width="0.72" stroke-linejoin="round"/>
<path d="M32.4562 16.3128C32.4562 12.0249 29.0073 8.66908 24.8125 8.66908C23.8804 8.66908 23.0414 8.85552 22.2025 9.13516C21.9228 5.96582 19.3128 3.35577 16.0502 3.35577C12.6012 3.35577 9.80476 6.15225 9.80476 9.60124C9.80476 10.347 9.9912 11.0927 10.1776 11.7452C9.89798 11.652 9.52512 11.652 9.24547 11.652C5.79648 11.652 3 14.4485 3 17.8975C3 21.2532 5.70326 24.0497 9.05904 24.1429H25.0922C29.1937 23.6769 32.4562 20.4143 32.4562 16.3128Z" fill="#57A0EE" stroke="white" stroke-width="1.2" stroke-linejoin="round"/>
<path d="M15.3232 27.3868L18.9026 16.4246H25.8379L21.2517 24.4785H25.6142L15.7706 36L19.5738 27.3868H15.3232Z" fill="#FFA500" stroke="white" stroke-width="1.2"/>
</g>
<defs>
<clipPath id="clip0_36_309">
<rect width="36" height="36" fill="white"/>
</clipPath>
</defs>
</svg>
