<svg width="36" height="36" viewBox="0 0 36 36" fill="none" xmlns="http://www.w3.org/2000/svg">
<path d="M35 16.4557C35 11.5063 31.019 7.63291 26.1772 7.63291C25.1013 7.63291 24.1329 7.8481 23.1646 8.17089C22.8418 4.51266 19.8291 1.5 16.0633 1.5C12.0823 1.5 8.85443 4.72785 8.85443 8.70886C8.85443 9.56962 9.06962 10.4304 9.28481 11.1835C8.96202 11.0759 8.53164 11.0759 8.20886 11.0759C4.22785 11.0759 1 14.3038 1 18.2848C1 22.1582 4.12025 25.3861 7.99367 25.4937H26.5C31.2342 24.9557 35 21.1899 35 16.4557Z" fill="#57A0EE" stroke="white" stroke-width="1.2" stroke-linejoin="round"/>
<path d="M8.42406 27.3229V32.7026" stroke="#57A0EE" stroke-width="1.2" stroke-linecap="round"/>
<path d="M10.3261 28.1108L6.52201 31.9148" stroke="#57A0EE" stroke-linecap="round"/>
<path d="M11.1139 30.0127H5.73418" stroke="#57A0EE" stroke-linecap="round"/>
<path d="M10.326 31.9148L6.52196 28.1107" stroke="#57A0EE" stroke-linecap="round"/>
<path d="M17.0316 27.3229V32.7026" stroke="#57A0EE" stroke-width="1.2" stroke-linecap="round"/>
<path d="M18.9337 28.1108L15.1296 31.9148" stroke="#57A0EE" stroke-linecap="round"/>
<path d="M19.7215 30.0127H14.3418" stroke="#57A0EE" stroke-linecap="round"/>
<path d="M18.9336 31.9148L15.1296 28.1107" stroke="#57A0EE" stroke-linecap="round"/>
<path d="M26.7152 27.3229V32.7026" stroke="#57A0EE" stroke-width="1.2" stroke-linecap="round"/>
<path d="M28.6172 28.1108L24.8131 31.9148" stroke="#57A0EE" stroke-linecap="round"/>
<path d="M29.4051 30.0127H24.0253" stroke="#57A0EE" stroke-linecap="round"/>
<path d="M28.6171 31.9148L24.8131 28.1107" stroke="#57A0EE" stroke-linecap="round"/>
</svg>
